mtllib enemy1.mtl

v  1.0000 -3.0000 -1.0000
v  -1.0000 -3.0000 -1.0000
v  -1.0000 -5.0000 -1.0000
v  1.0000 -5.0000 -1.0000
v  -1.0000 -3.0000 1.0000
v  -1.0000 -5.0000 1.0000
v  1.0000 -3.0000 1.0000
v  1.0000 -5.0000 1.0000
v  1.0000 -1.0000 -1.0000
v  -1.0000 -1.0000 -1.0000
v  -1.0000 -1.0000 1.0000
v  1.0000 -1.0000 1.0000
v  1.0000 1.0000 -1.0000
v  -1.0000 1.0000 -1.0000
v  -1.0000 1.0000 1.0000
v  1.0000 1.0000 1.0000
v  3.0000 1.0000 -1.0000
v  3.0000 -1.0000 -1.0000
v  3.0000 1.0000 1.0000
v  3.0000 -1.0000 1.0000
v  3.0000 3.0000 -1.0000
v  1.0000 3.0000 -1.0000
v  1.0000 3.0000 1.0000
v  3.0000 3.0000 1.0000
v  5.0000 3.0000 -1.0000
v  5.0000 1.0000 -1.0000
v  5.0000 3.0000 1.0000
v  5.0000 1.0000 1.0000
v  5.0000 5.0000 -1.0000
v  3.0000 5.0000 -1.0000
v  3.0000 5.0000 1.0000
v  5.0000 5.0000 1.0000
v  5.0000 -1.0000 -1.0000
v  5.0000 -1.0000 1.0000
v  3.0000 -3.0000 -1.0000
v  5.0000 -3.0000 -1.0000
v  3.0000 -3.0000 1.0000
v  5.0000 -3.0000 1.0000
v  3.0000 -5.0000 -1.0000
v  5.0000 -5.0000 -1.0000
v  3.0000 -5.0000 1.0000
v  5.0000 -5.0000 1.0000
v  5.0000 9.0000 -1.0000
v  3.0000 9.0000 -1.0000
v  3.0000 7.0000 -1.0000
v  5.0000 7.0000 -1.0000
v  3.0000 9.0000 1.0000
v  3.0000 7.0000 1.0000
v  5.0000 9.0000 1.0000
v  5.0000 7.0000 1.0000
v  7.0000 1.0000 -1.0000
v  7.0000 -1.0000 -1.0000
v  7.0000 1.0000 1.0000
v  7.0000 -1.0000 1.0000
v  7.0000 5.0000 -1.0000
v  7.0000 3.0000 -1.0000
v  7.0000 5.0000 1.0000
v  7.0000 3.0000 1.0000
v  7.0000 7.0000 -1.0000
v  7.0000 7.0000 1.0000
v  7.0000 -3.0000 -1.0000
v  7.0000 -3.0000 1.0000
v  7.0000 -5.0000 -1.0000
v  5.0000 -7.0000 -1.0000
v  7.0000 -7.0000 -1.0000
v  5.0000 -7.0000 1.0000
v  7.0000 -5.0000 1.0000
v  7.0000 -7.0000 1.0000
v  9.0000 -5.0000 -1.0000
v  9.0000 -7.0000 -1.0000
v  9.0000 -5.0000 1.0000
v  9.0000 -7.0000 1.0000
v  9.0000 -1.0000 -1.0000
v  9.0000 -3.0000 -1.0000
v  9.0000 -1.0000 1.0000
v  9.0000 -3.0000 1.0000
v  9.0000 1.0000 -1.0000
v  9.0000 1.0000 1.0000
v  9.0000 3.0000 -1.0000
v  9.0000 3.0000 1.0000
v  9.0000 5.0000 -1.0000
v  9.0000 5.0000 1.0000
v  11.0000 1.0000 -1.0000
v  11.0000 -1.0000 -1.0000
v  11.0000 1.0000 1.0000
v  11.0000 -1.0000 1.0000
v  11.0000 3.0000 -1.0000
v  11.0000 3.0000 1.0000
v  11.0000 5.0000 -1.0000
v  11.0000 5.0000 1.0000
v  11.0000 -3.0000 -1.0000
v  11.0000 -3.0000 1.0000
v  13.0000 -5.0000 -1.0000
v  11.0000 -5.0000 -1.0000
v  11.0000 -7.0000 -1.0000
v  13.0000 -7.0000 -1.0000
v  11.0000 -5.0000 1.0000
v  11.0000 -7.0000 1.0000
v  13.0000 -5.0000 1.0000
v  13.0000 -7.0000 1.0000
v  13.0000 1.0000 -1.0000
v  13.0000 -1.0000 -1.0000
v  13.0000 1.0000 1.0000
v  13.0000 -1.0000 1.0000
v  13.0000 3.0000 -1.0000
v  13.0000 3.0000 1.0000
v  13.0000 5.0000 -1.0000
v  13.0000 5.0000 1.0000
v  13.0000 -3.0000 -1.0000
v  13.0000 -3.0000 1.0000
v  15.0000 7.0000 -1.0000
v  13.0000 7.0000 -1.0000
v  15.0000 5.0000 -1.0000
v  13.0000 7.0000 1.0000
v  15.0000 7.0000 1.0000
v  15.0000 5.0000 1.0000
v  15.0000 3.0000 -1.0000
v  15.0000 3.0000 1.0000
v  15.0000 1.0000 -1.0000
v  15.0000 -1.0000 -1.0000
v  15.0000 1.0000 1.0000
v  15.0000 -1.0000 1.0000
v  15.0000 -3.0000 -1.0000
v  15.0000 -3.0000 1.0000
v  15.0000 -5.0000 -1.0000
v  15.0000 -7.0000 -1.0000
v  15.0000 -5.0000 1.0000
v  15.0000 -7.0000 1.0000
v  17.0000 9.0000 -1.0000
v  15.0000 9.0000 -1.0000
v  17.0000 7.0000 -1.0000
v  15.0000 9.0000 1.0000
v  17.0000 9.0000 1.0000
v  17.0000 7.0000 1.0000
v  17.0000 5.0000 -1.0000
v  17.0000 3.0000 -1.0000
v  17.0000 5.0000 1.0000
v  17.0000 3.0000 1.0000
v  17.0000 1.0000 -1.0000
v  17.0000 1.0000 1.0000
v  17.0000 -1.0000 -1.0000
v  17.0000 -1.0000 1.0000
v  17.0000 -3.0000 -1.0000
v  17.0000 -3.0000 1.0000
v  17.0000 -5.0000 -1.0000
v  17.0000 -5.0000 1.0000
v  19.0000 3.0000 -1.0000
v  19.0000 1.0000 -1.0000
v  19.0000 3.0000 1.0000
v  19.0000 1.0000 1.0000
v  19.0000 -1.0000 -1.0000
v  19.0000 -1.0000 1.0000
v  21.0000 1.0000 -1.0000
v  21.0000 -1.0000 -1.0000
v  21.0000 1.0000 1.0000
v  21.0000 -1.0000 1.0000
v  19.0000 -3.0000 -1.0000
v  21.0000 -3.0000 -1.0000
v  19.0000 -3.0000 1.0000
v  21.0000 -3.0000 1.0000
v  19.0000 -5.0000 -1.0000
v  21.0000 -5.0000 -1.0000
v  19.0000 -5.0000 1.0000
v  21.0000 -5.0000 1.0000

vn 0.0000 0.0000 1.0000
vn 1.0000 0.0000 -0.0000
vn 0.0000 0.0000 -1.0000
vn -1.0000 0.0000 -0.0000
vn 0.0000 -1.0000 -0.0000
vn 0.0000 1.0000 -0.0000
# 6 vertex normals

vt 0.0000 0.0000 0.0000

o enemy
g enemy
s off
f 1/1/1 2/1/1 3/1/1 
f 3/1/1 4/1/1 1/1/1 
f 2/1/2 5/1/2 6/1/2 
f 6/1/2 3/1/2 2/1/2 
f 5/1/3 7/1/3 8/1/3 
f 8/1/3 6/1/3 5/1/3 
f 7/1/4 1/1/4 4/1/4 
f 4/1/4 8/1/4 7/1/4 
f 7/1/5 5/1/5 2/1/5 
f 2/1/5 1/1/5 7/1/5 
f 4/1/6 3/1/6 6/1/6 
f 6/1/6 8/1/6 4/1/6 
f 9/1/1 10/1/1 2/1/1 
f 2/1/1 1/1/1 9/1/1 
f 10/1/2 11/1/2 5/1/2 
f 5/1/2 2/1/2 10/1/2 
f 11/1/3 12/1/3 7/1/3 
f 7/1/3 5/1/3 11/1/3 
f 12/1/4 9/1/4 1/1/4 
f 1/1/4 7/1/4 12/1/4 
f 12/1/5 11/1/5 10/1/5 
f 10/1/5 9/1/5 12/1/5 
f 1/1/6 2/1/6 5/1/6 
f 5/1/6 7/1/6 1/1/6 
f 13/1/1 14/1/1 10/1/1 
f 10/1/1 9/1/1 13/1/1 
f 14/1/2 15/1/2 11/1/2 
f 11/1/2 10/1/2 14/1/2 
f 15/1/3 16/1/3 12/1/3 
f 12/1/3 11/1/3 15/1/3 
f 16/1/4 13/1/4 9/1/4 
f 9/1/4 12/1/4 16/1/4 
f 16/1/5 15/1/5 14/1/5 
f 14/1/5 13/1/5 16/1/5 
f 9/1/6 10/1/6 11/1/6 
f 11/1/6 12/1/6 9/1/6 
f 17/1/1 13/1/1 9/1/1 
f 9/1/1 18/1/1 17/1/1 
f 13/1/2 16/1/2 12/1/2 
f 12/1/2 9/1/2 13/1/2 
f 16/1/3 19/1/3 20/1/3 
f 20/1/3 12/1/3 16/1/3 
f 19/1/4 17/1/4 18/1/4 
f 18/1/4 20/1/4 19/1/4 
f 19/1/5 16/1/5 13/1/5 
f 13/1/5 17/1/5 19/1/5 
f 18/1/6 9/1/6 12/1/6 
f 12/1/6 20/1/6 18/1/6 
f 21/1/1 22/1/1 13/1/1 
f 13/1/1 17/1/1 21/1/1 
f 22/1/2 23/1/2 16/1/2 
f 16/1/2 13/1/2 22/1/2 
f 23/1/3 24/1/3 19/1/3 
f 19/1/3 16/1/3 23/1/3 
f 24/1/4 21/1/4 17/1/4 
f 17/1/4 19/1/4 24/1/4 
f 24/1/5 23/1/5 22/1/5 
f 22/1/5 21/1/5 24/1/5 
f 17/1/6 13/1/6 16/1/6 
f 16/1/6 19/1/6 17/1/6 
f 25/1/1 21/1/1 17/1/1 
f 17/1/1 26/1/1 25/1/1 
f 21/1/2 24/1/2 19/1/2 
f 19/1/2 17/1/2 21/1/2 
f 24/1/3 27/1/3 28/1/3 
f 28/1/3 19/1/3 24/1/3 
f 27/1/4 25/1/4 26/1/4 
f 26/1/4 28/1/4 27/1/4 
f 27/1/5 24/1/5 21/1/5 
f 21/1/5 25/1/5 27/1/5 
f 26/1/6 17/1/6 19/1/6 
f 19/1/6 28/1/6 26/1/6 
f 29/1/1 30/1/1 21/1/1 
f 21/1/1 25/1/1 29/1/1 
f 30/1/2 31/1/2 24/1/2 
f 24/1/2 21/1/2 30/1/2 
f 31/1/3 32/1/3 27/1/3 
f 27/1/3 24/1/3 31/1/3 
f 32/1/4 29/1/4 25/1/4 
f 25/1/4 27/1/4 32/1/4 
f 32/1/5 31/1/5 30/1/5 
f 30/1/5 29/1/5 32/1/5 
f 25/1/6 21/1/6 24/1/6 
f 24/1/6 27/1/6 25/1/6 
f 26/1/1 17/1/1 18/1/1 
f 18/1/1 33/1/1 26/1/1 
f 17/1/2 19/1/2 20/1/2 
f 20/1/2 18/1/2 17/1/2 
f 19/1/3 28/1/3 34/1/3 
f 34/1/3 20/1/3 19/1/3 
f 28/1/4 26/1/4 33/1/4 
f 33/1/4 34/1/4 28/1/4 
f 28/1/5 19/1/5 17/1/5 
f 17/1/5 26/1/5 28/1/5 
f 33/1/6 18/1/6 20/1/6 
f 20/1/6 34/1/6 33/1/6 
f 33/1/1 18/1/1 35/1/1 
f 35/1/1 36/1/1 33/1/1 
f 18/1/2 20/1/2 37/1/2 
f 37/1/2 35/1/2 18/1/2 
f 20/1/3 34/1/3 38/1/3 
f 38/1/3 37/1/3 20/1/3 
f 34/1/4 33/1/4 36/1/4 
f 36/1/4 38/1/4 34/1/4 
f 34/1/5 20/1/5 18/1/5 
f 18/1/5 33/1/5 34/1/5 
f 36/1/6 35/1/6 37/1/6 
f 37/1/6 38/1/6 36/1/6 
f 36/1/1 35/1/1 39/1/1 
f 39/1/1 40/1/1 36/1/1 
f 35/1/2 37/1/2 41/1/2 
f 41/1/2 39/1/2 35/1/2 
f 37/1/3 38/1/3 42/1/3 
f 42/1/3 41/1/3 37/1/3 
f 38/1/4 36/1/4 40/1/4 
f 40/1/4 42/1/4 38/1/4 
f 38/1/5 37/1/5 35/1/5 
f 35/1/5 36/1/5 38/1/5 
f 40/1/6 39/1/6 41/1/6 
f 41/1/6 42/1/6 40/1/6 
f 43/1/1 44/1/1 45/1/1 
f 45/1/1 46/1/1 43/1/1 
f 44/1/2 47/1/2 48/1/2 
f 48/1/2 45/1/2 44/1/2 
f 47/1/3 49/1/3 50/1/3 
f 50/1/3 48/1/3 47/1/3 
f 49/1/4 43/1/4 46/1/4 
f 46/1/4 50/1/4 49/1/4 
f 49/1/5 47/1/5 44/1/5 
f 44/1/5 43/1/5 49/1/5 
f 46/1/6 45/1/6 48/1/6 
f 48/1/6 50/1/6 46/1/6 
f 51/1/1 26/1/1 33/1/1 
f 33/1/1 52/1/1 51/1/1 
f 26/1/2 28/1/2 34/1/2 
f 34/1/2 33/1/2 26/1/2 
f 28/1/3 53/1/3 54/1/3 
f 54/1/3 34/1/3 28/1/3 
f 53/1/4 51/1/4 52/1/4 
f 52/1/4 54/1/4 53/1/4 
f 53/1/5 28/1/5 26/1/5 
f 26/1/5 51/1/5 53/1/5 
f 52/1/6 33/1/6 34/1/6 
f 34/1/6 54/1/6 52/1/6 
f 55/1/1 29/1/1 25/1/1 
f 25/1/1 56/1/1 55/1/1 
f 29/1/2 32/1/2 27/1/2 
f 27/1/2 25/1/2 29/1/2 
f 32/1/3 57/1/3 58/1/3 
f 58/1/3 27/1/3 32/1/3 
f 57/1/4 55/1/4 56/1/4 
f 56/1/4 58/1/4 57/1/4 
f 57/1/5 32/1/5 29/1/5 
f 29/1/5 55/1/5 57/1/5 
f 56/1/6 25/1/6 27/1/6 
f 27/1/6 58/1/6 56/1/6 
f 59/1/1 46/1/1 29/1/1 
f 29/1/1 55/1/1 59/1/1 
f 46/1/2 50/1/2 32/1/2 
f 32/1/2 29/1/2 46/1/2 
f 50/1/3 60/1/3 57/1/3 
f 57/1/3 32/1/3 50/1/3 
f 60/1/4 59/1/4 55/1/4 
f 55/1/4 57/1/4 60/1/4 
f 60/1/5 50/1/5 46/1/5 
f 46/1/5 59/1/5 60/1/5 
f 55/1/6 29/1/6 32/1/6 
f 32/1/6 57/1/6 55/1/6 
f 52/1/1 33/1/1 36/1/1 
f 36/1/1 61/1/1 52/1/1 
f 33/1/2 34/1/2 38/1/2 
f 38/1/2 36/1/2 33/1/2 
f 34/1/3 54/1/3 62/1/3 
f 62/1/3 38/1/3 34/1/3 
f 54/1/4 52/1/4 61/1/4 
f 61/1/4 62/1/4 54/1/4 
f 54/1/5 34/1/5 33/1/5 
f 33/1/5 52/1/5 54/1/5 
f 61/1/6 36/1/6 38/1/6 
f 38/1/6 62/1/6 61/1/6 
f 63/1/1 40/1/1 64/1/1 
f 64/1/1 65/1/1 63/1/1 
f 40/1/2 42/1/2 66/1/2 
f 66/1/2 64/1/2 40/1/2 
f 42/1/3 67/1/3 68/1/3 
f 68/1/3 66/1/3 42/1/3 
f 67/1/4 63/1/4 65/1/4 
f 65/1/4 68/1/4 67/1/4 
f 67/1/5 42/1/5 40/1/5 
f 40/1/5 63/1/5 67/1/5 
f 65/1/6 64/1/6 66/1/6 
f 66/1/6 68/1/6 65/1/6 
f 69/1/1 63/1/1 65/1/1 
f 65/1/1 70/1/1 69/1/1 
f 63/1/2 67/1/2 68/1/2 
f 68/1/2 65/1/2 63/1/2 
f 67/1/3 71/1/3 72/1/3 
f 72/1/3 68/1/3 67/1/3 
f 71/1/4 69/1/4 70/1/4 
f 70/1/4 72/1/4 71/1/4 
f 71/1/5 67/1/5 63/1/5 
f 63/1/5 69/1/5 71/1/5 
f 70/1/6 65/1/6 68/1/6 
f 68/1/6 72/1/6 70/1/6 
f 73/1/1 52/1/1 61/1/1 
f 61/1/1 74/1/1 73/1/1 
f 52/1/2 54/1/2 62/1/2 
f 62/1/2 61/1/2 52/1/2 
f 54/1/3 75/1/3 76/1/3 
f 76/1/3 62/1/3 54/1/3 
f 75/1/4 73/1/4 74/1/4 
f 74/1/4 76/1/4 75/1/4 
f 75/1/5 54/1/5 52/1/5 
f 52/1/5 73/1/5 75/1/5 
f 74/1/6 61/1/6 62/1/6 
f 62/1/6 76/1/6 74/1/6 
f 77/1/1 51/1/1 52/1/1 
f 52/1/1 73/1/1 77/1/1 
f 51/1/2 53/1/2 54/1/2 
f 54/1/2 52/1/2 51/1/2 
f 53/1/3 78/1/3 75/1/3 
f 75/1/3 54/1/3 53/1/3 
f 78/1/4 77/1/4 73/1/4 
f 73/1/4 75/1/4 78/1/4 
f 78/1/5 53/1/5 51/1/5 
f 51/1/5 77/1/5 78/1/5 
f 73/1/6 52/1/6 54/1/6 
f 54/1/6 75/1/6 73/1/6 
f 79/1/1 56/1/1 51/1/1 
f 51/1/1 77/1/1 79/1/1 
f 56/1/2 58/1/2 53/1/2 
f 53/1/2 51/1/2 56/1/2 
f 58/1/3 80/1/3 78/1/3 
f 78/1/3 53/1/3 58/1/3 
f 80/1/4 79/1/4 77/1/4 
f 77/1/4 78/1/4 80/1/4 
f 80/1/5 58/1/5 56/1/5 
f 56/1/5 79/1/5 80/1/5 
f 77/1/6 51/1/6 53/1/6 
f 53/1/6 78/1/6 77/1/6 
f 81/1/1 55/1/1 56/1/1 
f 56/1/1 79/1/1 81/1/1 
f 55/1/2 57/1/2 58/1/2 
f 58/1/2 56/1/2 55/1/2 
f 57/1/3 82/1/3 80/1/3 
f 80/1/3 58/1/3 57/1/3 
f 82/1/4 81/1/4 79/1/4 
f 79/1/4 80/1/4 82/1/4 
f 82/1/5 57/1/5 55/1/5 
f 55/1/5 81/1/5 82/1/5 
f 79/1/6 56/1/6 58/1/6 
f 58/1/6 80/1/6 79/1/6 
f 83/1/1 77/1/1 73/1/1 
f 73/1/1 84/1/1 83/1/1 
f 77/1/2 78/1/2 75/1/2 
f 75/1/2 73/1/2 77/1/2 
f 78/1/3 85/1/3 86/1/3 
f 86/1/3 75/1/3 78/1/3 
f 85/1/4 83/1/4 84/1/4 
f 84/1/4 86/1/4 85/1/4 
f 85/1/5 78/1/5 77/1/5 
f 77/1/5 83/1/5 85/1/5 
f 84/1/6 73/1/6 75/1/6 
f 75/1/6 86/1/6 84/1/6 
f 87/1/1 79/1/1 77/1/1 
f 77/1/1 83/1/1 87/1/1 
f 79/1/2 80/1/2 78/1/2 
f 78/1/2 77/1/2 79/1/2 
f 80/1/3 88/1/3 85/1/3 
f 85/1/3 78/1/3 80/1/3 
f 88/1/4 87/1/4 83/1/4 
f 83/1/4 85/1/4 88/1/4 
f 88/1/5 80/1/5 79/1/5 
f 79/1/5 87/1/5 88/1/5 
f 83/1/6 77/1/6 78/1/6 
f 78/1/6 85/1/6 83/1/6 
f 89/1/1 81/1/1 79/1/1 
f 79/1/1 87/1/1 89/1/1 
f 81/1/2 82/1/2 80/1/2 
f 80/1/2 79/1/2 81/1/2 
f 82/1/3 90/1/3 88/1/3 
f 88/1/3 80/1/3 82/1/3 
f 90/1/4 89/1/4 87/1/4 
f 87/1/4 88/1/4 90/1/4 
f 90/1/5 82/1/5 81/1/5 
f 81/1/5 89/1/5 90/1/5 
f 87/1/6 79/1/6 80/1/6 
f 80/1/6 88/1/6 87/1/6 
f 84/1/1 73/1/1 74/1/1 
f 74/1/1 91/1/1 84/1/1 
f 73/1/2 75/1/2 76/1/2 
f 76/1/2 74/1/2 73/1/2 
f 75/1/3 86/1/3 92/1/3 
f 92/1/3 76/1/3 75/1/3 
f 86/1/4 84/1/4 91/1/4 
f 91/1/4 92/1/4 86/1/4 
f 86/1/5 75/1/5 73/1/5 
f 73/1/5 84/1/5 86/1/5 
f 91/1/6 74/1/6 76/1/6 
f 76/1/6 92/1/6 91/1/6 
f 93/1/1 94/1/1 95/1/1 
f 95/1/1 96/1/1 93/1/1 
f 94/1/2 97/1/2 98/1/2 
f 98/1/2 95/1/2 94/1/2 
f 97/1/3 99/1/3 100/1/3 
f 100/1/3 98/1/3 97/1/3 
f 99/1/4 93/1/4 96/1/4 
f 96/1/4 100/1/4 99/1/4 
f 99/1/5 97/1/5 94/1/5 
f 94/1/5 93/1/5 99/1/5 
f 96/1/6 95/1/6 98/1/6 
f 98/1/6 100/1/6 96/1/6 
f 101/1/1 83/1/1 84/1/1 
f 84/1/1 102/1/1 101/1/1 
f 83/1/2 85/1/2 86/1/2 
f 86/1/2 84/1/2 83/1/2 
f 85/1/3 103/1/3 104/1/3 
f 104/1/3 86/1/3 85/1/3 
f 103/1/4 101/1/4 102/1/4 
f 102/1/4 104/1/4 103/1/4 
f 103/1/5 85/1/5 83/1/5 
f 83/1/5 101/1/5 103/1/5 
f 102/1/6 84/1/6 86/1/6 
f 86/1/6 104/1/6 102/1/6 
f 105/1/1 87/1/1 83/1/1 
f 83/1/1 101/1/1 105/1/1 
f 87/1/2 88/1/2 85/1/2 
f 85/1/2 83/1/2 87/1/2 
f 88/1/3 106/1/3 103/1/3 
f 103/1/3 85/1/3 88/1/3 
f 106/1/4 105/1/4 101/1/4 
f 101/1/4 103/1/4 106/1/4 
f 106/1/5 88/1/5 87/1/5 
f 87/1/5 105/1/5 106/1/5 
f 101/1/6 83/1/6 85/1/6 
f 85/1/6 103/1/6 101/1/6 
f 107/1/1 89/1/1 87/1/1 
f 87/1/1 105/1/1 107/1/1 
f 89/1/2 90/1/2 88/1/2 
f 88/1/2 87/1/2 89/1/2 
f 90/1/3 108/1/3 106/1/3 
f 106/1/3 88/1/3 90/1/3 
f 108/1/4 107/1/4 105/1/4 
f 105/1/4 106/1/4 108/1/4 
f 108/1/5 90/1/5 89/1/5 
f 89/1/5 107/1/5 108/1/5 
f 105/1/6 87/1/6 88/1/6 
f 88/1/6 106/1/6 105/1/6 
f 102/1/1 84/1/1 91/1/1 
f 91/1/1 109/1/1 102/1/1 
f 84/1/2 86/1/2 92/1/2 
f 92/1/2 91/1/2 84/1/2 
f 86/1/3 104/1/3 110/1/3 
f 110/1/3 92/1/3 86/1/3 
f 104/1/4 102/1/4 109/1/4 
f 109/1/4 110/1/4 104/1/4 
f 104/1/5 86/1/5 84/1/5 
f 84/1/5 102/1/5 104/1/5 
f 109/1/6 91/1/6 92/1/6 
f 92/1/6 110/1/6 109/1/6 
f 111/1/1 112/1/1 107/1/1 
f 107/1/1 113/1/1 111/1/1 
f 112/1/2 114/1/2 108/1/2 
f 108/1/2 107/1/2 112/1/2 
f 114/1/3 115/1/3 116/1/3 
f 116/1/3 108/1/3 114/1/3 
f 115/1/4 111/1/4 113/1/4 
f 113/1/4 116/1/4 115/1/4 
f 115/1/5 114/1/5 112/1/5 
f 112/1/5 111/1/5 115/1/5 
f 113/1/6 107/1/6 108/1/6 
f 108/1/6 116/1/6 113/1/6 
f 113/1/1 107/1/1 105/1/1 
f 105/1/1 117/1/1 113/1/1 
f 107/1/2 108/1/2 106/1/2 
f 106/1/2 105/1/2 107/1/2 
f 108/1/3 116/1/3 118/1/3 
f 118/1/3 106/1/3 108/1/3 
f 116/1/4 113/1/4 117/1/4 
f 117/1/4 118/1/4 116/1/4 
f 116/1/5 108/1/5 107/1/5 
f 107/1/5 113/1/5 116/1/5 
f 117/1/6 105/1/6 106/1/6 
f 106/1/6 118/1/6 117/1/6 
f 119/1/1 101/1/1 102/1/1 
f 102/1/1 120/1/1 119/1/1 
f 101/1/2 103/1/2 104/1/2 
f 104/1/2 102/1/2 101/1/2 
f 103/1/3 121/1/3 122/1/3 
f 122/1/3 104/1/3 103/1/3 
f 121/1/4 119/1/4 120/1/4 
f 120/1/4 122/1/4 121/1/4 
f 121/1/5 103/1/5 101/1/5 
f 101/1/5 119/1/5 121/1/5 
f 120/1/6 102/1/6 104/1/6 
f 104/1/6 122/1/6 120/1/6 
f 120/1/1 102/1/1 109/1/1 
f 109/1/1 123/1/1 120/1/1 
f 102/1/2 104/1/2 110/1/2 
f 110/1/2 109/1/2 102/1/2 
f 104/1/3 122/1/3 124/1/3 
f 124/1/3 110/1/3 104/1/3 
f 122/1/4 120/1/4 123/1/4 
f 123/1/4 124/1/4 122/1/4 
f 122/1/5 104/1/5 102/1/5 
f 102/1/5 120/1/5 122/1/5 
f 123/1/6 109/1/6 110/1/6 
f 110/1/6 124/1/6 123/1/6 
f 125/1/1 93/1/1 96/1/1 
f 96/1/1 126/1/1 125/1/1 
f 93/1/2 99/1/2 100/1/2 
f 100/1/2 96/1/2 93/1/2 
f 99/1/3 127/1/3 128/1/3 
f 128/1/3 100/1/3 99/1/3 
f 127/1/4 125/1/4 126/1/4 
f 126/1/4 128/1/4 127/1/4 
f 127/1/5 99/1/5 93/1/5 
f 93/1/5 125/1/5 127/1/5 
f 126/1/6 96/1/6 100/1/6 
f 100/1/6 128/1/6 126/1/6 
f 129/1/1 130/1/1 111/1/1 
f 111/1/1 131/1/1 129/1/1 
f 130/1/2 132/1/2 115/1/2 
f 115/1/2 111/1/2 130/1/2 
f 132/1/3 133/1/3 134/1/3 
f 134/1/3 115/1/3 132/1/3 
f 133/1/4 129/1/4 131/1/4 
f 131/1/4 134/1/4 133/1/4 
f 133/1/5 132/1/5 130/1/5 
f 130/1/5 129/1/5 133/1/5 
f 131/1/6 111/1/6 115/1/6 
f 115/1/6 134/1/6 131/1/6 
f 135/1/1 113/1/1 117/1/1 
f 117/1/1 136/1/1 135/1/1 
f 113/1/2 116/1/2 118/1/2 
f 118/1/2 117/1/2 113/1/2 
f 116/1/3 137/1/3 138/1/3 
f 138/1/3 118/1/3 116/1/3 
f 137/1/4 135/1/4 136/1/4 
f 136/1/4 138/1/4 137/1/4 
f 137/1/5 116/1/5 113/1/5 
f 113/1/5 135/1/5 137/1/5 
f 136/1/6 117/1/6 118/1/6 
f 118/1/6 138/1/6 136/1/6 
f 136/1/1 117/1/1 119/1/1 
f 119/1/1 139/1/1 136/1/1 
f 117/1/2 118/1/2 121/1/2 
f 121/1/2 119/1/2 117/1/2 
f 118/1/3 138/1/3 140/1/3 
f 140/1/3 121/1/3 118/1/3 
f 138/1/4 136/1/4 139/1/4 
f 139/1/4 140/1/4 138/1/4 
f 138/1/5 118/1/5 117/1/5 
f 117/1/5 136/1/5 138/1/5 
f 139/1/6 119/1/6 121/1/6 
f 121/1/6 140/1/6 139/1/6 
f 139/1/1 119/1/1 120/1/1 
f 120/1/1 141/1/1 139/1/1 
f 119/1/2 121/1/2 122/1/2 
f 122/1/2 120/1/2 119/1/2 
f 121/1/3 140/1/3 142/1/3 
f 142/1/3 122/1/3 121/1/3 
f 140/1/4 139/1/4 141/1/4 
f 141/1/4 142/1/4 140/1/4 
f 140/1/5 121/1/5 119/1/5 
f 119/1/5 139/1/5 140/1/5 
f 141/1/6 120/1/6 122/1/6 
f 122/1/6 142/1/6 141/1/6 
f 141/1/1 120/1/1 123/1/1 
f 123/1/1 143/1/1 141/1/1 
f 120/1/2 122/1/2 124/1/2 
f 124/1/2 123/1/2 120/1/2 
f 122/1/3 142/1/3 144/1/3 
f 144/1/3 124/1/3 122/1/3 
f 142/1/4 141/1/4 143/1/4 
f 143/1/4 144/1/4 142/1/4 
f 142/1/5 122/1/5 120/1/5 
f 120/1/5 141/1/5 142/1/5 
f 143/1/6 123/1/6 124/1/6 
f 124/1/6 144/1/6 143/1/6 
f 143/1/1 123/1/1 125/1/1 
f 125/1/1 145/1/1 143/1/1 
f 123/1/2 124/1/2 127/1/2 
f 127/1/2 125/1/2 123/1/2 
f 124/1/3 144/1/3 146/1/3 
f 146/1/3 127/1/3 124/1/3 
f 144/1/4 143/1/4 145/1/4 
f 145/1/4 146/1/4 144/1/4 
f 144/1/5 124/1/5 123/1/5 
f 123/1/5 143/1/5 144/1/5 
f 145/1/6 125/1/6 127/1/6 
f 127/1/6 146/1/6 145/1/6 
f 147/1/1 136/1/1 139/1/1 
f 139/1/1 148/1/1 147/1/1 
f 136/1/2 138/1/2 140/1/2 
f 140/1/2 139/1/2 136/1/2 
f 138/1/3 149/1/3 150/1/3 
f 150/1/3 140/1/3 138/1/3 
f 149/1/4 147/1/4 148/1/4 
f 148/1/4 150/1/4 149/1/4 
f 149/1/5 138/1/5 136/1/5 
f 136/1/5 147/1/5 149/1/5 
f 148/1/6 139/1/6 140/1/6 
f 140/1/6 150/1/6 148/1/6 
f 148/1/1 139/1/1 141/1/1 
f 141/1/1 151/1/1 148/1/1 
f 139/1/2 140/1/2 142/1/2 
f 142/1/2 141/1/2 139/1/2 
f 140/1/3 150/1/3 152/1/3 
f 152/1/3 142/1/3 140/1/3 
f 150/1/4 148/1/4 151/1/4 
f 151/1/4 152/1/4 150/1/4 
f 150/1/5 140/1/5 139/1/5 
f 139/1/5 148/1/5 150/1/5 
f 151/1/6 141/1/6 142/1/6 
f 142/1/6 152/1/6 151/1/6 
f 153/1/1 148/1/1 151/1/1 
f 151/1/1 154/1/1 153/1/1 
f 148/1/2 150/1/2 152/1/2 
f 152/1/2 151/1/2 148/1/2 
f 150/1/3 155/1/3 156/1/3 
f 156/1/3 152/1/3 150/1/3 
f 155/1/4 153/1/4 154/1/4 
f 154/1/4 156/1/4 155/1/4 
f 155/1/5 150/1/5 148/1/5 
f 148/1/5 153/1/5 155/1/5 
f 154/1/6 151/1/6 152/1/6 
f 152/1/6 156/1/6 154/1/6 
f 154/1/1 151/1/1 157/1/1 
f 157/1/1 158/1/1 154/1/1 
f 151/1/2 152/1/2 159/1/2 
f 159/1/2 157/1/2 151/1/2 
f 152/1/3 156/1/3 160/1/3 
f 160/1/3 159/1/3 152/1/3 
f 156/1/4 154/1/4 158/1/4 
f 158/1/4 160/1/4 156/1/4 
f 156/1/5 152/1/5 151/1/5 
f 151/1/5 154/1/5 156/1/5 
f 158/1/6 157/1/6 159/1/6 
f 159/1/6 160/1/6 158/1/6 
f 158/1/1 157/1/1 161/1/1 
f 161/1/1 162/1/1 158/1/1 
f 157/1/2 159/1/2 163/1/2 
f 163/1/2 161/1/2 157/1/2 
f 159/1/3 160/1/3 164/1/3 
f 164/1/3 163/1/3 159/1/3 
f 160/1/4 158/1/4 162/1/4 
f 162/1/4 164/1/4 160/1/4 
f 160/1/5 159/1/5 157/1/5 
f 157/1/5 158/1/5 160/1/5 
f 162/1/6 161/1/6 163/1/6 
f 163/1/6 164/1/6 162/1/6 
